<svg width="124" height="48" viewBox="0 0 124 48" fill="none" xmlns="http://www.w3.org/2000/svg">
<path d="M23.6379 19.3462C22.0629 19.3462 21.3973 20.0978 20.3004 20.0978C19.1758 20.0978 18.318 19.3517 16.9531 19.3517C15.6172 19.3517 14.1926 20.1673 13.2879 21.5567C12.0176 23.5161 12.2332 27.2063 14.2906 30.3501C15.0266 31.4755 16.0094 32.7376 17.2984 32.7513H17.3219C18.4422 32.7513 18.775 32.0177 20.3168 32.0091H20.3402C21.859 32.0091 22.1637 32.747 23.2793 32.747H23.3027C24.5918 32.7333 25.6273 31.3349 26.3633 30.2138C26.893 29.4075 27.0899 29.0028 27.4961 28.0907C24.5199 26.961 24.0418 22.7419 26.9852 21.1243C26.0867 19.9993 24.8242 19.3478 23.634 19.3478L23.6379 19.3462Z" fill="#69779D"/>
<path d="M23.2911 15.25C22.3536 15.3137 21.2598 15.9105 20.6192 16.6898C20.0379 17.3961 19.5598 18.4438 19.7473 19.4598H19.8223C20.8207 19.4598 21.8426 18.8586 22.4395 18.0883C23.0145 17.3551 23.4504 16.316 23.2911 15.25Z" fill="#69779D"/>
<path d="M40.64 29.5C40.5547 29.5 40.48 29.468 40.416 29.404C40.352 29.34 40.32 29.2653 40.32 29.18C40.32 29.0947 40.3253 29.036 40.336 29.004L44.304 18.652C44.3893 18.4173 44.56 18.3 44.816 18.3H45.904C46.16 18.3 46.3307 18.4173 46.416 18.652L50.368 29.004L50.4 29.18C50.4 29.2653 50.368 29.34 50.304 29.404C50.24 29.468 50.1653 29.5 50.08 29.5H49.264C49.1467 29.5 49.056 29.4733 48.992 29.42C48.928 29.356 48.8853 29.292 48.864 29.228L47.984 26.956H42.736L41.856 29.228C41.8347 29.292 41.7867 29.356 41.712 29.42C41.648 29.4733 41.5627 29.5 41.456 29.5H40.64ZM47.52 25.58L45.36 19.9L43.2 25.58H47.52ZM52.2868 32.54C52.1801 32.54 52.0894 32.5027 52.0148 32.428C51.9508 32.364 51.9188 32.2787 51.9188 32.172V21.548C51.9188 21.4413 51.9508 21.356 52.0148 21.292C52.0894 21.2173 52.1801 21.18 52.2868 21.18H53.0228C53.1294 21.18 53.2148 21.2173 53.2788 21.292C53.3534 21.356 53.3908 21.4413 53.3908 21.548V22.252C53.9881 21.4307 54.8628 21.02 56.0148 21.02C57.1348 21.02 57.9721 21.372 58.5268 22.076C59.0921 22.78 59.3961 23.6867 59.4388 24.796C59.4494 24.9133 59.4548 25.0947 59.4548 25.34C59.4548 25.5853 59.4494 25.7667 59.4388 25.884C59.3961 26.9827 59.0921 27.8893 58.5268 28.604C57.9614 29.308 57.1241 29.66 56.0148 29.66C54.9054 29.66 54.0414 29.26 53.4228 28.46V32.172C53.4228 32.2787 53.3908 32.364 53.3268 32.428C53.2628 32.5027 53.1774 32.54 53.0707 32.54H52.2868ZM55.6788 28.364C56.4361 28.364 56.9854 28.1293 57.3268 27.66C57.6788 27.1907 57.8708 26.572 57.9028 25.804C57.9134 25.6973 57.9188 25.5427 57.9188 25.34C57.9188 23.324 57.1721 22.316 55.6788 22.316C54.9428 22.316 54.3881 22.5613 54.0148 23.052C53.6521 23.532 53.4548 24.108 53.4228 24.78L53.4068 25.388L53.4228 26.012C53.4441 26.6413 53.6468 27.1907 54.0308 27.66C54.4148 28.1293 54.9641 28.364 55.6788 28.364ZM61.818 32.54C61.7113 32.54 61.6207 32.5027 61.546 32.428C61.482 32.364 61.45 32.2787 61.45 32.172V21.548C61.45 21.4413 61.482 21.356 61.546 21.292C61.6207 21.2173 61.7113 21.18 61.818 21.18H62.554C62.6607 21.18 62.746 21.2173 62.81 21.292C62.8847 21.356 62.922 21.4413 62.922 21.548V22.252C63.5193 21.4307 64.394 21.02 65.546 21.02C66.666 21.02 67.5033 21.372 68.058 22.076C68.6233 22.78 68.9273 23.6867 68.97 24.796C68.9807 24.9133 68.986 25.0947 68.986 25.34C68.986 25.5853 68.9807 25.7667 68.97 25.884C68.9273 26.9827 68.6233 27.8893 68.058 28.604C67.4927 29.308 66.6553 29.66 65.546 29.66C64.4367 29.66 63.5727 29.26 62.954 28.46V32.172C62.954 32.2787 62.922 32.364 62.858 32.428C62.794 32.5027 62.7087 32.54 62.602 32.54H61.818ZM65.21 28.364C65.9673 28.364 66.5167 28.1293 66.858 27.66C67.21 27.1907 67.402 26.572 67.434 25.804C67.4447 25.6973 67.45 25.5427 67.45 25.34C67.45 23.324 66.7033 22.316 65.21 22.316C64.474 22.316 63.9193 22.5613 63.546 23.052C63.1833 23.532 62.986 24.108 62.954 24.78L62.938 25.388L62.954 26.012C62.9753 26.6413 63.178 27.1907 63.562 27.66C63.946 28.1293 64.4953 28.364 65.21 28.364ZM78.6951 29.66C77.8098 29.66 77.0418 29.5213 76.3911 29.244C75.7511 28.9667 75.2605 28.604 74.9191 28.156C74.5778 27.6973 74.3965 27.2067 74.3751 26.684C74.3751 26.5987 74.4071 26.524 74.4711 26.46C74.5458 26.3853 74.6311 26.348 74.7271 26.348H75.5431C75.7458 26.348 75.8845 26.4547 75.9591 26.668C76.0551 27.116 76.3271 27.5 76.7751 27.82C77.2338 28.14 77.8738 28.3 78.6951 28.3C79.5805 28.3 80.2471 28.1453 80.6951 27.836C81.1431 27.516 81.3671 27.0733 81.3671 26.508C81.3671 26.1453 81.2551 25.852 81.0311 25.628C80.8178 25.404 80.4978 25.2067 80.0711 25.036C79.6445 24.8653 79.0045 24.652 78.1511 24.396C77.3191 24.1613 76.6578 23.9107 76.1671 23.644C75.6765 23.3773 75.3085 23.0467 75.0631 22.652C74.8178 22.2573 74.6951 21.7613 74.6951 21.164C74.6951 20.588 74.8498 20.0707 75.1591 19.612C75.4791 19.1533 75.9325 18.796 76.5191 18.54C77.1058 18.2733 77.8045 18.14 78.6151 18.14C79.4471 18.14 80.1618 18.2893 80.7591 18.588C81.3565 18.876 81.8098 19.244 82.1191 19.692C82.4285 20.14 82.5938 20.588 82.6151 21.036C82.6151 21.1213 82.5831 21.196 82.5191 21.26C82.4658 21.324 82.3858 21.356 82.2791 21.356H81.4311C81.2071 21.356 81.0685 21.2547 81.0151 21.052C80.9511 20.604 80.7005 20.236 80.2631 19.948C79.8258 19.6493 79.2765 19.5 78.6151 19.5C77.8898 19.5 77.3191 19.6387 76.9031 19.916C76.4871 20.1933 76.2791 20.604 76.2791 21.148C76.2791 21.5107 76.3751 21.8093 76.5671 22.044C76.7698 22.2787 77.0738 22.4867 77.4791 22.668C77.8845 22.8387 78.4765 23.036 79.2551 23.26C80.1618 23.5053 80.8765 23.7613 81.3991 24.028C81.9218 24.284 82.3111 24.6093 82.5671 25.004C82.8231 25.388 82.9511 25.8787 82.9511 26.476C82.9511 27.468 82.5671 28.2467 81.7991 28.812C81.0311 29.3773 79.9965 29.66 78.6951 29.66ZM88.0883 29.5C86.4029 29.5 85.5603 28.5613 85.5603 26.684V22.46H84.3123C84.2056 22.46 84.1149 22.428 84.0403 22.364C83.9763 22.2893 83.9443 22.1987 83.9443 22.092V21.548C83.9443 21.4413 83.9763 21.356 84.0403 21.292C84.1149 21.2173 84.2056 21.18 84.3123 21.18H85.5603V18.508C85.5603 18.4013 85.5923 18.316 85.6562 18.252C85.7309 18.1773 85.8216 18.14 85.9283 18.14H86.6803C86.7869 18.14 86.8723 18.1773 86.9363 18.252C87.0109 18.316 87.0483 18.4013 87.0483 18.508V21.18H89.0323C89.1389 21.18 89.2243 21.2173 89.2883 21.292C89.3629 21.356 89.4003 21.4413 89.4003 21.548V22.092C89.4003 22.1987 89.3629 22.2893 89.2883 22.364C89.2243 22.428 89.1389 22.46 89.0323 22.46H87.0483V26.572C87.0483 27.1053 87.1389 27.5107 87.3203 27.788C87.5016 28.0547 87.8003 28.188 88.2163 28.188H89.1923C89.2989 28.188 89.3843 28.2253 89.4483 28.3C89.5229 28.364 89.5603 28.4493 89.5603 28.556V29.132C89.5603 29.2387 89.5229 29.3293 89.4483 29.404C89.3843 29.468 89.2989 29.5 89.1923 29.5H88.0883ZM94.4983 29.66C93.3249 29.66 92.4129 29.3293 91.7623 28.668C91.1223 28.0067 90.7809 27.1267 90.7383 26.028L90.7223 25.34L90.7383 24.652C90.7809 23.564 91.1276 22.6893 91.7783 22.028C92.4289 21.356 93.3356 21.02 94.4983 21.02C95.6609 21.02 96.5676 21.356 97.2183 22.028C97.8689 22.6893 98.2156 23.564 98.2583 24.652C98.2689 24.7693 98.2743 24.9987 98.2743 25.34C98.2743 25.6813 98.2689 25.9107 98.2583 26.028C98.2156 27.1267 97.8689 28.0067 97.2183 28.668C96.5783 29.3293 95.6716 29.66 94.4983 29.66ZM94.4983 28.428C95.1703 28.428 95.6983 28.2147 96.0823 27.788C96.4769 27.3613 96.6903 26.748 96.7223 25.948C96.7329 25.8413 96.7383 25.6387 96.7383 25.34C96.7383 25.0413 96.7329 24.8387 96.7223 24.732C96.6903 23.932 96.4769 23.3187 96.0823 22.892C95.6983 22.4653 95.1703 22.252 94.4983 22.252C93.8263 22.252 93.2929 22.4653 92.8983 22.892C92.5036 23.3187 92.2956 23.932 92.2743 24.732L92.2582 25.34L92.2743 25.948C92.2956 26.748 92.5036 27.3613 92.8983 27.788C93.2929 28.2147 93.8263 28.428 94.4983 28.428ZM100.646 29.5C100.539 29.5 100.448 29.468 100.374 29.404C100.31 29.3293 100.278 29.2387 100.278 29.132V21.564C100.278 21.4573 100.31 21.3667 100.374 21.292C100.448 21.2173 100.539 21.18 100.646 21.18H101.382C101.488 21.18 101.579 21.2173 101.654 21.292C101.728 21.3667 101.766 21.4573 101.766 21.564V22.268C102.203 21.5427 102.95 21.18 104.006 21.18H104.63C104.736 21.18 104.822 21.2173 104.886 21.292C104.96 21.356 104.998 21.4413 104.998 21.548V22.204C104.998 22.3107 104.96 22.396 104.886 22.46C104.822 22.524 104.736 22.556 104.63 22.556H103.67C103.094 22.556 102.64 22.7267 102.31 23.068C101.979 23.3987 101.814 23.852 101.814 24.428V29.132C101.814 29.2387 101.776 29.3293 101.702 29.404C101.627 29.468 101.536 29.5 101.43 29.5H100.646ZM109.528 29.66C108.429 29.66 107.549 29.324 106.888 28.652C106.237 27.9693 105.88 27.0413 105.816 25.868L105.8 25.324L105.816 24.796C105.89 23.644 106.253 22.7267 106.904 22.044C107.565 21.3613 108.434 21.02 109.512 21.02C110.696 21.02 111.613 21.3987 112.264 22.156C112.914 22.9027 113.24 23.916 113.24 25.196V25.468C113.24 25.5747 113.202 25.6653 113.128 25.74C113.064 25.804 112.978 25.836 112.872 25.836H107.336V25.98C107.368 26.6733 107.576 27.2653 107.96 27.756C108.354 28.236 108.872 28.476 109.512 28.476C110.002 28.476 110.402 28.38 110.712 28.188C111.032 27.9853 111.266 27.7773 111.416 27.564C111.512 27.436 111.581 27.3613 111.624 27.34C111.677 27.308 111.768 27.292 111.896 27.292H112.68C112.776 27.292 112.856 27.3187 112.92 27.372C112.984 27.4253 113.016 27.5 113.016 27.596C113.016 27.8307 112.866 28.1133 112.568 28.444C112.28 28.7747 111.869 29.0627 111.336 29.308C110.813 29.5427 110.21 29.66 109.528 29.66ZM111.72 24.732V24.684C111.72 23.948 111.517 23.3507 111.112 22.892C110.717 22.4227 110.184 22.188 109.512 22.188C108.84 22.188 108.306 22.4227 107.912 22.892C107.528 23.3507 107.336 23.948 107.336 24.684V24.732H111.72Z" fill="#69779D"/>
<rect x="0.5" y="0.5" width="123" height="47" rx="9.5" stroke="#69779D"/>
</svg>
