<svg width="20" height="20" viewBox="0 0 20 20" fill="none" xmlns="http://www.w3.org/2000/svg">
<g clip-path="url(#clip0)">
<path d="M19.8687 5.81211C19.8687 4.0543 18.5758 2.64023 16.9781 2.64023C14.8141 2.53906 12.607 2.5 10.3516 2.5H9.64843C7.39843 2.5 5.18749 2.53906 3.02343 2.64062C1.42968 2.64062 0.136712 4.0625 0.136712 5.82031C0.0390559 7.21055 -0.00235035 8.60117 -6.59846e-06 9.9918C-0.00391285 11.3824 0.040358 12.7743 0.132806 14.1676C0.132806 15.9254 1.42577 17.3512 3.01952 17.3512C5.29296 17.4566 7.62499 17.5035 9.99609 17.4996C12.3711 17.5074 14.6966 17.4579 16.9726 17.3512C18.5703 17.3512 19.8633 15.9254 19.8633 14.1676C19.957 12.773 20 11.3824 19.9961 9.98789C20.0049 8.59727 19.9625 7.20534 19.8687 5.81211ZM8.08593 13.8238V6.14805L13.75 9.98398L8.08593 13.8238Z" fill="#69779D"/>
</g>
<defs>
<clipPath id="clip0">
<rect width="20" height="20" fill="white"/>
</clipPath>
</defs>
</svg>
