<svg width="20" height="20" viewBox="0 0 20 20" fill="none" xmlns="http://www.w3.org/2000/svg">
<path d="M18.2495 9.8335C18.2495 5.34639 14.6116 1.7085 10.1245 1.7085C5.63734 1.7085 1.99945 5.34639 1.99945 9.8335C1.99945 14.3206 5.63734 17.9585 10.1245 17.9585C14.6116 17.9585 18.2495 14.3206 18.2495 9.8335ZM8.4057 12.7296V6.9374C8.40579 6.81871 8.43968 6.70249 8.5034 6.60235C8.56712 6.50221 8.65804 6.42229 8.76552 6.37193C8.873 6.32157 8.9926 6.30285 9.11033 6.31798C9.22806 6.3331 9.33905 6.38143 9.43031 6.45732L12.9104 9.35303C12.9809 9.41168 13.0376 9.48513 13.0766 9.56817C13.1155 9.6512 13.1357 9.74179 13.1357 9.8335C13.1357 9.92521 13.1155 10.0158 13.0766 10.0988C13.0376 10.1819 12.9809 10.2553 12.9104 10.314L9.43031 13.2097C9.33905 13.2856 9.22806 13.3339 9.11033 13.349C8.9926 13.3641 8.873 13.3454 8.76552 13.2951C8.65804 13.2447 8.56712 13.1648 8.5034 13.0646C8.43968 12.9645 8.40579 12.8483 8.4057 12.7296Z" fill="#0093FF"/>
</svg>
