<svg width="20" height="20" viewBox="0 0 20 20" fill="none" xmlns="http://www.w3.org/2000/svg">
<path d="M13.6457 2.7082C14.6118 2.71109 15.5375 3.09616 16.2207 3.77931C16.9038 4.46246 17.2889 5.38818 17.2918 6.3543V13.6457C17.2889 14.6118 16.9038 15.5375 16.2207 16.2207C15.5375 16.9038 14.6118 17.2889 13.6457 17.2918H6.3543C5.38818 17.2889 4.46246 16.9038 3.77931 16.2207C3.09616 15.5375 2.71109 14.6118 2.7082 13.6457V6.3543C2.71109 5.38818 3.09616 4.46246 3.77931 3.77931C4.46246 3.09616 5.38818 2.71109 6.3543 2.7082H13.6457ZM13.6457 1.25H6.3543C3.54687 1.25 1.25 3.54687 1.25 6.3543V13.6457C1.25 16.4531 3.54687 18.75 6.3543 18.75H13.6457C16.4531 18.75 18.75 16.4531 18.75 13.6457V6.3543C18.75 3.54687 16.4531 1.25 13.6457 1.25Z" fill="#69779D"/>
<path d="M14.7395 6.35449C14.5231 6.35449 14.3117 6.29035 14.1318 6.17016C13.9519 6.04998 13.8117 5.87916 13.729 5.6793C13.6462 5.47945 13.6245 5.25953 13.6667 5.04736C13.7089 4.8352 13.8131 4.64031 13.9661 4.48734C14.119 4.33438 14.3139 4.23021 14.5261 4.18801C14.7382 4.14581 14.9582 4.16747 15.158 4.25025C15.3579 4.33303 15.5287 4.47322 15.6489 4.65309C15.7691 4.83295 15.8332 5.04442 15.8332 5.26074C15.8335 5.40446 15.8054 5.54683 15.7506 5.67967C15.6957 5.81251 15.6152 5.9332 15.5135 6.03483C15.4119 6.13646 15.2912 6.21701 15.1584 6.27186C15.0255 6.32672 14.8832 6.3548 14.7395 6.35449ZM10 7.0834C10.5769 7.0834 11.1408 7.25447 11.6205 7.57497C12.1002 7.89547 12.474 8.35101 12.6948 8.88399C12.9155 9.41696 12.9733 10.0034 12.8608 10.5692C12.7482 11.135 12.4704 11.6548 12.0625 12.0627C11.6546 12.4706 11.1348 12.7484 10.569 12.8609C10.0032 12.9735 9.41677 12.9157 8.88379 12.695C8.35082 12.4742 7.89528 12.1003 7.57477 11.6207C7.25427 11.141 7.0832 10.5771 7.0832 10.0002C7.08403 9.22687 7.3916 8.48545 7.93843 7.93862C8.48525 7.3918 9.22667 7.08423 10 7.0834ZM10 5.6252C9.13471 5.6252 8.28885 5.88178 7.56938 6.36252C6.84992 6.84325 6.28916 7.52653 5.95803 8.32596C5.6269 9.12538 5.54026 10.005 5.70907 10.8537C5.87788 11.7024 6.29456 12.4819 6.90641 13.0938C7.51826 13.7056 8.29781 14.1223 9.14648 14.2911C9.99515 14.4599 10.8748 14.3733 11.6742 14.0422C12.4737 13.711 13.157 13.1503 13.6377 12.4308C14.1184 11.7114 14.375 10.8655 14.375 10.0002C14.375 8.83987 13.9141 7.72708 13.0936 6.9066C12.2731 6.08613 11.1603 5.6252 10 5.6252Z" fill="#69779D"/>
</svg>
