<svg width="134" height="24" viewBox="0 0 134 24" fill="none" xmlns="http://www.w3.org/2000/svg">
<circle cx="10" cy="12" r="10" fill="#0093FF"/>
<circle cx="20" cy="12" r="10" fill="#96DFFE"/>
<path d="M45.12 19C44.9867 19 44.8733 18.9533 44.78 18.86C44.6867 18.7667 44.64 18.6533 44.64 18.52V7.46H40.94C40.8067 7.46 40.6933 7.41333 40.6 7.32C40.5067 7.22667 40.46 7.11333 40.46 6.98V5.5C40.46 5.35333 40.5 5.23333 40.58 5.14C40.6733 5.04667 40.7933 5 40.94 5H51.14C51.2867 5 51.4067 5.04667 51.5 5.14C51.5933 5.23333 51.64 5.35333 51.64 5.5V6.98C51.64 7.11333 51.5933 7.22667 51.5 7.32C51.4067 7.41333 51.2867 7.46 51.14 7.46H47.46V18.52C47.46 18.6533 47.4133 18.7667 47.32 18.86C47.2267 18.9533 47.1067 19 46.96 19H45.12ZM56.0734 19.2C54.5934 19.2 53.4134 18.7733 52.5334 17.92C51.6668 17.0533 51.2068 15.84 51.1534 14.28L51.1334 13.78L51.1534 13.28C51.2201 11.76 51.6868 10.5667 52.5534 9.7C53.4334 8.83333 54.6068 8.4 56.0734 8.4C57.6468 8.4 58.8601 8.88 59.7134 9.84C60.5801 10.8 61.0134 12.08 61.0134 13.68V14.1C61.0134 14.2333 60.9668 14.3467 60.8734 14.44C60.7801 14.5333 60.6601 14.58 60.5134 14.58H53.8734V14.74C53.9001 15.4733 54.1001 16.0933 54.4734 16.6C54.8601 17.0933 55.3868 17.34 56.0534 17.34C56.8401 17.34 57.4734 17.0333 57.9534 16.42C58.0734 16.2733 58.1668 16.18 58.2334 16.14C58.3134 16.1 58.4268 16.08 58.5734 16.08H60.2934C60.4134 16.08 60.5134 16.12 60.5934 16.2C60.6868 16.2667 60.7334 16.3533 60.7334 16.46C60.7334 16.78 60.5401 17.16 60.1534 17.6C59.7801 18.0267 59.2401 18.4 58.5334 18.72C57.8268 19.04 57.0068 19.2 56.0734 19.2ZM58.2934 12.9V12.84C58.2934 12.0533 58.0934 11.42 57.6934 10.94C57.3068 10.46 56.7668 10.22 56.0734 10.22C55.3801 10.22 54.8401 10.46 54.4534 10.94C54.0668 11.42 53.8734 12.0533 53.8734 12.84V12.9H58.2934ZM63.6164 19C63.4831 19 63.3697 18.9533 63.2764 18.86C63.1831 18.7667 63.1364 18.6533 63.1364 18.52V9.08C63.1364 8.94667 63.1831 8.83333 63.2764 8.74C63.3697 8.64667 63.4831 8.6 63.6164 8.6H65.1764C65.3097 8.6 65.4231 8.64667 65.5164 8.74C65.6097 8.83333 65.6564 8.94667 65.6564 9.08V9.76C66.3497 8.85333 67.3164 8.4 68.5564 8.4C70.0364 8.4 71.0697 8.99333 71.6564 10.18C71.9764 9.64667 72.4297 9.22 73.0164 8.9C73.6031 8.56667 74.2364 8.4 74.9164 8.4C76.0097 8.4 76.9031 8.77333 77.5964 9.52C78.2897 10.2667 78.6364 11.3533 78.6364 12.78V18.52C78.6364 18.6533 78.5897 18.7667 78.4964 18.86C78.4164 18.9533 78.3031 19 78.1564 19H76.5164C76.3831 19 76.2697 18.9533 76.1764 18.86C76.0831 18.7667 76.0364 18.6533 76.0364 18.52V12.94C76.0364 12.1 75.8564 11.4933 75.4964 11.12C75.1497 10.7333 74.6831 10.54 74.0964 10.54C73.5764 10.54 73.1297 10.7333 72.7564 11.12C72.3964 11.5067 72.2164 12.1133 72.2164 12.94V18.52C72.2164 18.6533 72.1697 18.7667 72.0764 18.86C71.9831 18.9533 71.8697 19 71.7364 19H70.0964C69.9631 19 69.8497 18.9533 69.7564 18.86C69.6631 18.7667 69.6164 18.6533 69.6164 18.52V12.94C69.6164 12.1 69.4297 11.4933 69.0564 11.12C68.6964 10.7333 68.2364 10.54 67.6764 10.54C67.1431 10.54 66.6897 10.7333 66.3164 11.12C65.9564 11.5067 65.7764 12.1133 65.7764 12.94V18.52C65.7764 18.6533 65.7297 18.7667 65.6364 18.86C65.5431 18.9533 65.4297 19 65.2964 19H63.6164ZM81.6833 22.8C81.5499 22.8 81.4366 22.7533 81.3433 22.66C81.2499 22.58 81.2033 22.4667 81.2033 22.32V9.08C81.2033 8.93333 81.2499 8.82 81.3433 8.74C81.4366 8.64667 81.5499 8.6 81.6833 8.6H83.2633C83.4099 8.6 83.5233 8.64667 83.6033 8.74C83.6966 8.82 83.7433 8.93333 83.7433 9.08V9.88C84.4899 8.89333 85.5566 8.4 86.9433 8.4C88.2899 8.4 89.3233 8.82667 90.0433 9.68C90.7633 10.52 91.1499 11.66 91.2033 13.1C91.2166 13.26 91.2233 13.4933 91.2233 13.8C91.2233 14.12 91.2166 14.36 91.2033 14.52C91.1499 15.92 90.7633 17.0533 90.0433 17.92C89.3233 18.7733 88.2899 19.2 86.9433 19.2C85.5966 19.2 84.5699 18.7267 83.8633 17.78V22.32C83.8633 22.4667 83.8166 22.58 83.7233 22.66C83.6433 22.7533 83.5299 22.8 83.3833 22.8H81.6833ZM86.2033 17.06C87.6433 17.06 88.4099 16.1733 88.5033 14.4C88.5166 14.2667 88.5233 14.0667 88.5233 13.8C88.5233 13.5333 88.5166 13.3333 88.5033 13.2C88.4099 11.4267 87.6433 10.54 86.2033 10.54C85.4299 10.54 84.8566 10.7867 84.4833 11.28C84.1099 11.7733 83.9033 12.38 83.8633 13.1L83.8433 13.86L83.8633 14.64C83.8899 15.3067 84.0966 15.88 84.4833 16.36C84.8833 16.8267 85.4566 17.06 86.2033 17.06ZM93.9684 19C93.8351 19 93.7218 18.9533 93.6284 18.86C93.5351 18.7667 93.4884 18.6533 93.4884 18.52V5.28C93.4884 5.13333 93.5351 5.02 93.6284 4.94C93.7218 4.84667 93.8351 4.8 93.9684 4.8H95.6284C95.7751 4.8 95.8884 4.84667 95.9684 4.94C96.0618 5.02 96.1084 5.13333 96.1084 5.28V18.52C96.1084 18.6533 96.0618 18.7667 95.9684 18.86C95.8884 18.9533 95.7751 19 95.6284 19H93.9684ZM102.621 19.2C101.395 19.2 100.428 18.8 99.7214 18C99.0147 17.1867 98.6614 16.0867 98.6614 14.7V9.08C98.6614 8.94667 98.7081 8.83333 98.8014 8.74C98.8947 8.64667 99.0081 8.6 99.1414 8.6H100.901C101.048 8.6 101.161 8.64667 101.241 8.74C101.335 8.82 101.381 8.93333 101.381 9.08V14.58C101.381 16.2333 102.108 17.06 103.561 17.06C104.255 17.06 104.801 16.84 105.201 16.4C105.615 15.96 105.821 15.3533 105.821 14.58V9.08C105.821 8.94667 105.868 8.83333 105.961 8.74C106.055 8.64667 106.168 8.6 106.301 8.6H108.061C108.208 8.6 108.321 8.64667 108.401 8.74C108.495 8.82 108.541 8.93333 108.541 9.08V18.52C108.541 18.6533 108.495 18.7667 108.401 18.86C108.321 18.9533 108.208 19 108.061 19H106.441C106.308 19 106.195 18.9533 106.101 18.86C106.008 18.7667 105.961 18.6533 105.961 18.52V17.7C105.215 18.7 104.101 19.2 102.621 19.2ZM111.663 19C111.53 19 111.417 18.9533 111.323 18.86C111.23 18.7667 111.183 18.6533 111.183 18.52V9.08C111.183 8.94667 111.23 8.83333 111.323 8.74C111.417 8.64667 111.53 8.6 111.663 8.6H113.303C113.437 8.6 113.55 8.64667 113.643 8.74C113.737 8.83333 113.783 8.94667 113.783 9.08V9.9C114.57 8.9 115.683 8.4 117.123 8.4C118.35 8.4 119.323 8.80667 120.043 9.62C120.763 10.42 121.123 11.5133 121.123 12.9V18.52C121.123 18.6533 121.077 18.7667 120.983 18.86C120.903 18.9533 120.79 19 120.643 19H118.883C118.75 19 118.637 18.9533 118.543 18.86C118.45 18.7667 118.403 18.6533 118.403 18.52V13.02C118.403 12.2333 118.21 11.6267 117.823 11.2C117.45 10.76 116.903 10.54 116.183 10.54C115.477 10.54 114.917 10.76 114.503 11.2C114.103 11.64 113.903 12.2467 113.903 13.02V18.52C113.903 18.6533 113.857 18.7667 113.763 18.86C113.683 18.9533 113.57 19 113.423 19H111.663ZM128.144 19.2C126.664 19.2 125.484 18.7733 124.604 17.92C123.737 17.0533 123.277 15.84 123.224 14.28L123.204 13.78L123.224 13.28C123.29 11.76 123.757 10.5667 124.624 9.7C125.504 8.83333 126.677 8.4 128.144 8.4C129.717 8.4 130.93 8.88 131.784 9.84C132.65 10.8 133.084 12.08 133.084 13.68V14.1C133.084 14.2333 133.037 14.3467 132.944 14.44C132.85 14.5333 132.73 14.58 132.584 14.58H125.944V14.74C125.97 15.4733 126.17 16.0933 126.544 16.6C126.93 17.0933 127.457 17.34 128.124 17.34C128.91 17.34 129.544 17.0333 130.024 16.42C130.144 16.2733 130.237 16.18 130.304 16.14C130.384 16.1 130.497 16.08 130.644 16.08H132.364C132.484 16.08 132.584 16.12 132.664 16.2C132.757 16.2667 132.804 16.3533 132.804 16.46C132.804 16.78 132.61 17.16 132.224 17.6C131.85 18.0267 131.31 18.4 130.604 18.72C129.897 19.04 129.077 19.2 128.144 19.2ZM130.364 12.9V12.84C130.364 12.0533 130.164 11.42 129.764 10.94C129.377 10.46 128.837 10.22 128.144 10.22C127.45 10.22 126.91 10.46 126.524 10.94C126.137 11.42 125.944 12.0533 125.944 12.84V12.9H130.364Z" fill="white"/>
</svg>
