<svg width="126" height="48" viewBox="0 0 126 48" fill="none" xmlns="http://www.w3.org/2000/svg">
<path d="M11.875 16.3239V31.6755C11.8751 31.7088 11.885 31.7413 11.9036 31.769C11.9221 31.7967 11.9484 31.8183 11.9791 31.8311C12.0098 31.8439 12.0437 31.8474 12.0764 31.841C12.1091 31.8347 12.1392 31.8188 12.1629 31.7954L20.1562 24.0001L12.1629 16.204C12.1392 16.1806 12.1091 16.1648 12.0764 16.1584C12.0437 16.1521 12.0098 16.1555 11.9791 16.1683C11.9484 16.1811 11.9221 16.2027 11.9036 16.2304C11.885 16.2581 11.8751 16.2906 11.875 16.3239ZM23.5078 20.797L13.4852 15.2751L13.4789 15.2716C13.3062 15.1779 13.1422 15.4114 13.2836 15.5474L21.1402 23.0599L23.5078 20.797ZM13.2844 32.4529C13.1422 32.5888 13.3063 32.8224 13.4797 32.7286L13.4859 32.7251L23.5078 27.2032L21.1402 24.9396L13.2844 32.4529ZM27.5539 23.0236L24.7551 21.4821L22.1234 24.0001L24.7551 26.5169L27.5539 24.9767C28.3152 24.556 28.3152 23.4443 27.5539 23.0236Z" fill="#69779D"/>
<path d="M41.76 29.5C41.6533 29.5 41.5627 29.468 41.488 29.404C41.424 29.3293 41.392 29.2387 41.392 29.132V18.684C41.392 18.5667 41.424 18.476 41.488 18.412C41.5627 18.3373 41.6533 18.3 41.76 18.3H45.824C47.0293 18.3 47.9787 18.5933 48.672 19.18C49.3653 19.7667 49.712 20.6147 49.712 21.724C49.712 22.8333 49.3653 23.6813 48.672 24.268C47.9893 24.844 47.04 25.132 45.824 25.132H42.992V29.132C42.992 29.2387 42.9547 29.3293 42.88 29.404C42.8053 29.468 42.7147 29.5 42.608 29.5H41.76ZM45.744 23.788C46.5227 23.788 47.1093 23.612 47.504 23.26C47.9093 22.908 48.112 22.396 48.112 21.724C48.112 21.052 47.9147 20.54 47.52 20.188C47.1253 19.8253 46.5333 19.644 45.744 19.644H42.976V23.788H45.744ZM51.8336 29.5C51.727 29.5 51.6363 29.468 51.5616 29.404C51.4976 29.3293 51.4656 29.2387 51.4656 29.132V18.508C51.4656 18.4013 51.4976 18.316 51.5616 18.252C51.6363 18.1773 51.727 18.14 51.8336 18.14H52.5856C52.6923 18.14 52.7776 18.1773 52.8416 18.252C52.9163 18.316 52.9536 18.4013 52.9536 18.508V29.132C52.9536 29.2387 52.9163 29.3293 52.8416 29.404C52.7776 29.468 52.6923 29.5 52.5856 29.5H51.8336ZM57.6603 29.66C57.1376 29.66 56.6523 29.5533 56.2043 29.34C55.7563 29.1267 55.3989 28.8387 55.1323 28.476C54.8763 28.1027 54.7483 27.692 54.7483 27.244C54.7483 26.54 55.0363 25.964 55.6123 25.516C56.1989 25.0573 56.9883 24.7587 57.9803 24.62L60.3643 24.284V23.82C60.3643 22.732 59.7403 22.188 58.4923 22.188C58.0229 22.188 57.6389 22.2893 57.3403 22.492C57.0416 22.684 56.8176 22.9133 56.6683 23.18C56.6363 23.276 56.5936 23.3453 56.5403 23.388C56.4976 23.4307 56.4336 23.452 56.3483 23.452H55.6603C55.5643 23.452 55.4789 23.42 55.4043 23.356C55.3403 23.2813 55.3083 23.196 55.3083 23.1C55.3189 22.844 55.4363 22.556 55.6603 22.236C55.8949 21.9053 56.2523 21.6227 56.7323 21.388C57.2123 21.1427 57.8043 21.02 58.5083 21.02C59.7029 21.02 60.5616 21.3027 61.0843 21.868C61.6069 22.4227 61.8683 23.116 61.8683 23.948V29.132C61.8683 29.2387 61.8309 29.3293 61.7563 29.404C61.6923 29.468 61.6069 29.5 61.5003 29.5H60.7643C60.6576 29.5 60.5669 29.468 60.4923 29.404C60.4283 29.3293 60.3963 29.2387 60.3963 29.132V28.444C60.1616 28.7853 59.8203 29.0733 59.3723 29.308C58.9243 29.5427 58.3536 29.66 57.6603 29.66ZM57.9963 28.46C58.6896 28.46 59.2549 28.236 59.6923 27.788C60.1403 27.3293 60.3643 26.6733 60.3643 25.82V25.372L58.5083 25.644C57.7509 25.7507 57.1803 25.932 56.7963 26.188C56.4123 26.4333 56.2203 26.748 56.2203 27.132C56.2203 27.5587 56.3963 27.8893 56.7483 28.124C57.1003 28.348 57.5163 28.46 57.9963 28.46ZM65.4525 32.54C65.3672 32.54 65.2925 32.508 65.2285 32.444C65.1645 32.38 65.1325 32.3053 65.1325 32.22C65.1325 32.1453 65.1592 32.0493 65.2125 31.932L66.4445 29.004L63.3885 21.788C63.3352 21.6493 63.3085 21.5587 63.3085 21.516C63.3085 21.42 63.3405 21.34 63.4045 21.276C63.4685 21.212 63.5485 21.18 63.6445 21.18H64.4285C64.5992 21.18 64.7272 21.2707 64.8125 21.452L67.2445 27.276L69.7405 21.452C69.8258 21.2707 69.9592 21.18 70.1405 21.18H70.8925C70.9885 21.18 71.0685 21.212 71.1325 21.276C71.1965 21.34 71.2285 21.4147 71.2285 21.5C71.2285 21.532 71.2018 21.628 71.1485 21.788L66.6045 32.268C66.5192 32.4493 66.3858 32.54 66.2045 32.54H65.4525ZM80.1326 29.66C79.2473 29.66 78.4793 29.5213 77.8286 29.244C77.1886 28.9667 76.698 28.604 76.3566 28.156C76.0153 27.6973 75.834 27.2067 75.8126 26.684C75.8126 26.5987 75.8446 26.524 75.9086 26.46C75.9833 26.3853 76.0686 26.348 76.1646 26.348H76.9806C77.1833 26.348 77.322 26.4547 77.3966 26.668C77.4926 27.116 77.7646 27.5 78.2126 27.82C78.6713 28.14 79.3113 28.3 80.1326 28.3C81.018 28.3 81.6846 28.1453 82.1326 27.836C82.5806 27.516 82.8046 27.0733 82.8046 26.508C82.8046 26.1453 82.6926 25.852 82.4686 25.628C82.2553 25.404 81.9353 25.2067 81.5086 25.036C81.082 24.8653 80.442 24.652 79.5886 24.396C78.7566 24.1613 78.0953 23.9107 77.6046 23.644C77.114 23.3773 76.746 23.0467 76.5006 22.652C76.2553 22.2573 76.1326 21.7613 76.1326 21.164C76.1326 20.588 76.2873 20.0707 76.5966 19.612C76.9166 19.1533 77.37 18.796 77.9566 18.54C78.5433 18.2733 79.242 18.14 80.0526 18.14C80.8846 18.14 81.5993 18.2893 82.1966 18.588C82.794 18.876 83.2473 19.244 83.5566 19.692C83.866 20.14 84.0313 20.588 84.0526 21.036C84.0526 21.1213 84.0206 21.196 83.9566 21.26C83.9033 21.324 83.8233 21.356 83.7166 21.356H82.8686C82.6446 21.356 82.506 21.2547 82.4526 21.052C82.3886 20.604 82.138 20.236 81.7006 19.948C81.2633 19.6493 80.714 19.5 80.0526 19.5C79.3273 19.5 78.7566 19.6387 78.3406 19.916C77.9246 20.1933 77.7166 20.604 77.7166 21.148C77.7166 21.5107 77.8126 21.8093 78.0046 22.044C78.2073 22.2787 78.5113 22.4867 78.9166 22.668C79.322 22.8387 79.914 23.036 80.6926 23.26C81.5993 23.5053 82.314 23.7613 82.8366 24.028C83.3593 24.284 83.7486 24.6093 84.0046 25.004C84.2606 25.388 84.3886 25.8787 84.3886 26.476C84.3886 27.468 84.0046 28.2467 83.2366 28.812C82.4686 29.3773 81.434 29.66 80.1326 29.66ZM89.5258 29.5C87.8404 29.5 86.9978 28.5613 86.9978 26.684V22.46H85.7498C85.6431 22.46 85.5524 22.428 85.4778 22.364C85.4138 22.2893 85.3818 22.1987 85.3818 22.092V21.548C85.3818 21.4413 85.4138 21.356 85.4778 21.292C85.5524 21.2173 85.6431 21.18 85.7498 21.18H86.9978V18.508C86.9978 18.4013 87.0298 18.316 87.0938 18.252C87.1684 18.1773 87.2591 18.14 87.3658 18.14H88.1178C88.2244 18.14 88.3098 18.1773 88.3738 18.252C88.4484 18.316 88.4858 18.4013 88.4858 18.508V21.18H90.4698C90.5764 21.18 90.6618 21.2173 90.7258 21.292C90.8004 21.356 90.8378 21.4413 90.8378 21.548V22.092C90.8378 22.1987 90.8004 22.2893 90.7258 22.364C90.6618 22.428 90.5764 22.46 90.4698 22.46H88.4858V26.572C88.4858 27.1053 88.5764 27.5107 88.7578 27.788C88.9391 28.0547 89.2378 28.188 89.6538 28.188H90.6298C90.7364 28.188 90.8218 28.2253 90.8858 28.3C90.9604 28.364 90.9978 28.4493 90.9978 28.556V29.132C90.9978 29.2387 90.9604 29.3293 90.8858 29.404C90.8218 29.468 90.7364 29.5 90.6298 29.5H89.5258ZM95.9358 29.66C94.7624 29.66 93.8504 29.3293 93.1998 28.668C92.5598 28.0067 92.2184 27.1267 92.1758 26.028L92.1598 25.34L92.1758 24.652C92.2184 23.564 92.5651 22.6893 93.2158 22.028C93.8664 21.356 94.7731 21.02 95.9358 21.02C97.0984 21.02 98.0051 21.356 98.6558 22.028C99.3064 22.6893 99.6531 23.564 99.6958 24.652C99.7064 24.7693 99.7118 24.9987 99.7118 25.34C99.7118 25.6813 99.7064 25.9107 99.6958 26.028C99.6531 27.1267 99.3064 28.0067 98.6558 28.668C98.0158 29.3293 97.1091 29.66 95.9358 29.66ZM95.9358 28.428C96.6078 28.428 97.1358 28.2147 97.5198 27.788C97.9144 27.3613 98.1278 26.748 98.1598 25.948C98.1704 25.8413 98.1758 25.6387 98.1758 25.34C98.1758 25.0413 98.1704 24.8387 98.1598 24.732C98.1278 23.932 97.9144 23.3187 97.5198 22.892C97.1358 22.4653 96.6078 22.252 95.9358 22.252C95.2638 22.252 94.7304 22.4653 94.3358 22.892C93.9411 23.3187 93.7331 23.932 93.7118 24.732L93.6957 25.34L93.7118 25.948C93.7331 26.748 93.9411 27.3613 94.3358 27.788C94.7304 28.2147 95.2638 28.428 95.9358 28.428ZM102.083 29.5C101.977 29.5 101.886 29.468 101.811 29.404C101.747 29.3293 101.715 29.2387 101.715 29.132V21.564C101.715 21.4573 101.747 21.3667 101.811 21.292C101.886 21.2173 101.977 21.18 102.083 21.18H102.819C102.926 21.18 103.017 21.2173 103.091 21.292C103.166 21.3667 103.203 21.4573 103.203 21.564V22.268C103.641 21.5427 104.387 21.18 105.443 21.18H106.067C106.174 21.18 106.259 21.2173 106.323 21.292C106.398 21.356 106.435 21.4413 106.435 21.548V22.204C106.435 22.3107 106.398 22.396 106.323 22.46C106.259 22.524 106.174 22.556 106.067 22.556H105.107C104.531 22.556 104.078 22.7267 103.747 23.068C103.417 23.3987 103.251 23.852 103.251 24.428V29.132C103.251 29.2387 103.214 29.3293 103.139 29.404C103.065 29.468 102.974 29.5 102.867 29.5H102.083ZM110.965 29.66C109.866 29.66 108.986 29.324 108.325 28.652C107.674 27.9693 107.317 27.0413 107.253 25.868L107.237 25.324L107.253 24.796C107.328 23.644 107.69 22.7267 108.341 22.044C109.002 21.3613 109.872 21.02 110.949 21.02C112.133 21.02 113.05 21.3987 113.701 22.156C114.352 22.9027 114.677 23.916 114.677 25.196V25.468C114.677 25.5747 114.64 25.6653 114.565 25.74C114.501 25.804 114.416 25.836 114.309 25.836H108.773V25.98C108.805 26.6733 109.013 27.2653 109.397 27.756C109.792 28.236 110.309 28.476 110.949 28.476C111.44 28.476 111.84 28.38 112.149 28.188C112.469 27.9853 112.704 27.7773 112.853 27.564C112.949 27.436 113.018 27.3613 113.061 27.34C113.114 27.308 113.205 27.292 113.333 27.292H114.117C114.213 27.292 114.293 27.3187 114.357 27.372C114.421 27.4253 114.453 27.5 114.453 27.596C114.453 27.8307 114.304 28.1133 114.005 28.444C113.717 28.7747 113.306 29.0627 112.773 29.308C112.25 29.5427 111.648 29.66 110.965 29.66ZM113.157 24.732V24.684C113.157 23.948 112.954 23.3507 112.549 22.892C112.154 22.4227 111.621 22.188 110.949 22.188C110.277 22.188 109.744 22.4227 109.349 22.892C108.965 23.3507 108.773 23.948 108.773 24.684V24.732H113.157Z" fill="#69779D"/>
<rect x="0.5" y="0.5" width="125" height="47" rx="9.5" stroke="#69779D"/>
</svg>
